<svg xmlns="http://www.w3.org/2000/svg" xmlns:xlink="http://www.w3.org/1999/xlink" viewBox="0 0 100 125" version="1.1" x="0px" y="0px"><title>tool-9</title><desc>Created with Sketch.</desc><g stroke="none" stroke-width="1" fill="none" fill-rule="evenodd"><path d="M25.141569,41.7809759 L24.7141804,45.0924835 L30.3265473,45.0924835 L29.9122317,41.8775154 C31.156184,41.6301329 32.3498553,41.1615138 33.3424025,40.4143379 C36.5151346,38.0269953 37.2230913,33.0401242 35.4934244,29.6843693 C34.9121758,28.5540521 34.1056683,27.6640781 33.0759132,27.0124362 C32.0451524,26.3607942 30.4552667,25.7302703 28.3052505,25.1198588 C26.1552343,24.5104529 24.8026749,23.9251818 24.2445557,23.3630401 C23.6230823,22.7345274 23.4149189,21.7912556 23.7236444,20.9777088 C24.2797524,19.5084975 26.1843972,19.1293786 27.6435523,19.1766428 C28.4581047,19.2027889 29.2857302,19.4320703 29.9092148,19.9318636 C30.4421936,20.3582466 30.7841045,20.9525682 30.9993072,21.5881203 L35.4813569,20.7011632 C35.0801144,18.8759623 34.1660056,17.1704303 32.4785747,16.1034672 C31.6801122,15.5986458 30.780082,15.2667911 29.8458608,15.0505827 L30.3265473,11.3257651 L24.7141804,11.3257651 L25.1868219,14.9882342 C24.6176408,15.1089087 24.0585159,15.2637742 23.528554,15.4950669 C18.3365364,17.7597238 18.0227829,25.2395276 22.5048326,28.3328156 C24.0092405,29.3706158 25.8284077,29.8342067 27.5791926,30.3510956 C29.1298591,30.810664 31.1219929,31.2762662 31.7736349,32.8802306 C32.2714169,34.1060818 31.7877136,35.5028884 30.8665654,36.4260478 C30.14453,37.1490888 29.0715331,37.5111121 27.649586,37.5111121 C25.1254791,37.5111121 23.4219583,35.6999899 23.0539012,33.4071757 L18.7820262,34.3715655 C19.2033811,36.586947 20.1265406,38.7580813 21.9064885,40.2122082 C22.8366873,40.9724572 23.9539314,41.4843179 25.141569,41.7809759 L25.141569,41.7809759 Z M27.5972938,51.1835257 C15.1195571,51.1835257 5.0050281,41.0689967 5.0050281,28.59126 C5.0050281,16.114529 15.1195571,6 27.5972938,6 C40.0740248,6 50.1885538,16.114529 50.1885538,28.59126 C50.1885538,41.0689967 40.0740248,51.1835257 27.5972938,51.1835257 L27.5972938,51.1835257 Z M95,38.0571639 L77.6641116,67.1537817 L77.6641116,93.4859492 L75.652871,93.4859492 L75.652871,68.2438741 L60.5695722,60.251204 L60.5695722,93.4859492 L58.5583316,93.4859492 L58.5583316,60.4794798 L43.9758316,76.2697297 L43.9758316,93.4859492 L41.964591,93.4859492 L41.964591,78.1663296 L26.0395879,70.2772383 L26.0395879,93.4859492 L24.0283473,93.4859492 L24.0283473,70.0690749 L8.86862129,82.733857 L5,78.1029755 L23.7719141,62.4203269 L40.7739366,70.8434026 L58.0806619,52.1036683 L74.4410986,60.7731209 L89.8160274,34.968904 L95,38.0571639 Z" fill="#000000"/></g><text x="0" y="115" fill="#000000" font-size="5px" font-weight="bold" font-family="'Helvetica Neue', Helvetica, Arial-Unicode, Arial, Sans-serif">Created by Icon Island</text><text x="0" y="120" fill="#000000" font-size="5px" font-weight="bold" font-family="'Helvetica Neue', Helvetica, Arial-Unicode, Arial, Sans-serif">from the Noun Project</text></svg>